PathFileType	4	(X/Y/Z)	./resultDataOpenSim/trcMotMarkerGrf/sub06/qtm-05-08.trc
DataRate	CameraRate	NumFrames	NumMarkers	Units	OrigDataRate	OrigDataStartFrame	OrigNumFrames
250.000000	250.000000	10	24	m	250.000000	1	507
Frame#	Time	L.Toe.Tip			R.Toe.Tip			L.Ankle.Lat			R.Ankle.Lat			L.Ankle.Med			R.Ankle.Med			L.Heel			R.Heel			L.Knee.Lat			R.Knee.Lat			L.Knee.Med			R.Knee.Med			L.Thigh.Upper			R.Thigh.Upper			L.ASIS			R.ASIS			V.Sacral			L.Acromium			R.Acromium			C7			L.Elbow			R.Elbow			L.Wrist.Lat			R.Wrist.Lat
		X1	Y1	Z1	X2	Y2	Z2	X3	Y3	Z3	X4	Y4	Z4	X5	Y5	Z5	X6	Y6	Z6	X7	Y7	Z7	X8	Y8	Z8	X9	Y9	Z9	X10	Y10	Z10	X11	Y11	Z11	X12	Y12	Z12	X13	Y13	Z13	X14	Y14	Z14	X15	Y15	Z15	X16	Y16	Z16	X17	Y17	Z17	X18	Y18	Z18	X19	Y19	Z19	X20	Y20	Z20	X21	Y21	Z21	X22	Y22	Z22	X23	Y23	Z23	X24	Y24	Z24

1	0	-1.6139396	0.032424599	-0.060279282	-1.1246603	0.076516941	0.13800833	-1.7356291	0.072539253	-0.07344304	-1.2555526	0.077424226	0.13444243	-1.7233768	0.086279976	0.0098968791	-1.2303924	0.10571073	0.054032977	NaN	NaN	NaN	-1.29262	0.04604418	0.058101182	-1.5840433	0.41477273	-0.093785563	-1.2849367	0.46665559	0.1596547	-1.5955603	0.41712141	0.025936798	-1.2922221	0.45028944	0.033315905	-1.4992487	0.79331506	-0.16226101	-1.4684537	0.7923983	0.1905743	-1.4168188	0.83395813	-0.12145985	-1.3905481	0.84173852	0.12374918	-1.5811971	0.91826073	0.028802089	-1.4188091	1.3180475	-0.17979676	-1.4263863	1.30703	0.18303177	-1.4958517	1.3568262	0.00015638294	-1.4393733	0.99785589	-0.25703417	-1.5617597	1.020254	0.24234713	-1.2373792	0.85043758	-0.23870996	-1.4537601	0.80250175	0.27233195
2	0.004	-1.6129579	0.032592586	-0.061058762	-1.1078453	0.079021783	0.13790377	-1.7353373	0.072932057	-0.073406029	-1.2382953	0.076903075	0.13535653	-1.7236145	0.086585174	0.010059901	-1.214785	0.10567587	0.054596529	NaN	NaN	NaN	-1.2754656	0.044417597	0.059046721	-1.5815696	0.41402168	-0.093838512	-1.2787381	0.464946	0.15904788	-1.5928064	0.41641133	0.025945494	-1.2861654	0.44829658	0.032640122	-1.4950755	0.79239704	-0.16100539	-1.4623905	0.7905226	0.1907162	-1.4114371	0.83232354	-0.1218104	-1.3845816	0.83997749	0.12374404	-1.5735476	0.91629959	0.030769375	-1.4132626	1.3163544	-0.17959277	-1.4209886	1.3051978	0.18335012	-1.4904857	1.3552914	0.0002795595	-1.4319887	0.9960305	-0.25681693	-1.556611	1.0186233	0.24228823	-1.2289617	0.85025945	-0.237654	-1.4498218	0.80045585	0.2724445
3	0.008	-1.6122906	0.032700033	-0.06156911	-1.0912342	0.081649181	0.13778476	-1.7350688	0.073312702	-0.073373559	-1.2212741	0.076519986	0.13627734	-1.7236535	0.086924335	0.010189519	-1.1993584	0.10574098	0.05516095	NaN	NaN	NaN	-1.2585123	0.04292062	0.060028478	-1.578986	0.41326863	-0.09387473	-1.2725245	0.46321977	0.15843526	-1.5898833	0.415687	0.02590063	-1.2801473	0.44625596	0.031912285	-1.4907602	0.79121079	-0.16031499	-1.4569609	0.78852735	0.19060448	-1.4060244	0.83071992	-0.12199486	-1.3785912	0.83818776	0.12373116	-1.5659687	0.91432521	0.032580141	-1.4076937	1.3146214	-0.1793564	-1.4155907	1.303371	0.18368778	-1.4851711	1.3537697	0.00046513431	-1.4245337	0.99418911	-0.2566125	-1.5513569	1.0168669	0.24216713	-1.2205665	0.85004451	-0.23659034	-1.4458739	0.79841218	0.27259234
4	0.012	-1.6122394	0.032702	-0.061572598	-1.0749493	0.084473261	0.13761163	-1.7348228	0.073670711	-0.07335107	-1.204642	0.076351874	0.13719679	-1.7234024	0.087304751	0.010263608	-1.1842429	0.1059539	0.055727504	NaN	NaN	NaN	-1.2418777	0.041634718	0.0610644	-1.5762605	0.41250766	-0.093903997	-1.2663082	0.46145953	0.15781429	-1.5868536	0.41492246	0.025831103	-1.2741715	0.44415182	0.031119754	-1.4861957	0.78974479	-0.16009944	-1.4525036	0.78632285	0.19014123	-1.4005152	0.82916777	-0.12195124	-1.3725626	0.83636676	0.12370875	-1.5586031	0.91234824	0.034045147	-1.4020793	1.3128394	-0.17908024	-1.4102011	1.301559	0.18405975	-1.4798601	1.3522493	0.0007509522	-1.4169362	0.99233914	-0.25636723	-1.5459841	1.0149826	0.24200147	-1.2122075	0.84977541	-0.23551274	-1.4419025	0.79636005	0.27278066
5	0.016	-1.6127531	0.032613412	-0.061124922	-1.0590918	0.087503647	0.13734637	-1.7345898	0.074010783	-0.073342811	-1.1885193	0.076409711	0.13808566	-1.7229002	0.08771003	0.010278493	-1.1695531	0.10630362	0.056280978	NaN	NaN	NaN	-1.2256407	0.040575544	0.062147648	-1.5734237	0.41173854	-0.093947618	-1.260211	0.45963644	0.15716853	-1.5838824	0.41411041	0.02579207	-1.2682363	0.44200673	0.030298654	-1.4813389	0.78818794	-0.15988072	-1.4485038	0.783966	0.1895408	-1.3949013	0.82766857	-0.12173599	-1.3665062	0.83452978	0.12367353	-1.5516953	0.91041259	0.034938234	-1.3964183	1.3110408	-0.1787793	-1.4048307	1.2997621	0.18446713	-1.4744513	1.350706	0.0011447451	-1.4092488	0.99049786	-0.25605169	-1.54057	1.0130665	0.24187039	-1.2039102	0.84946079	-0.23442146	-1.4379086	0.79429628	0.27299261
6	0.02	-1.6133798	0.032503574	-0.060588091	-1.0437678	0.090716525	0.13702266	-1.7343586	0.074368523	-0.073349845	-1.1729776	0.076661901	0.1389088	-1.722223	0.088132936	0.010239353	-1.1553448	0.10677157	0.056788331	NaN	NaN	NaN	-1.2098569	0.039705994	0.063246199	-1.5704912	0.41097139	-0.094007397	-1.2542031	0.45776788	0.15652413	-1.5809517	0.41327678	0.025782167	-1.2623409	0.43985373	0.029496096	-1.476234	0.78668846	-0.15940187	-1.4438432	0.78164374	0.18918747	-1.3892974	0.82616781	-0.12149934	-1.3604236	0.83268889	0.12362097	-1.5455269	0.90857776	0.035028983	-1.3907178	1.309262	-0.17845709	-1.3994648	1.2979655	0.18490052	-1.4688939	1.3491297	0.0016238064	-1.4016324	0.98866127	-0.25570982	-1.5351952	1.0112111	0.24184826	-1.1956907	0.84912179	-0.23331854	-1.4338901	0.79222977	0.27322392
7	0.024	-1.6137501	0.032425823	-0.060245578	-1.0290696	0.094071946	0.13672177	-1.7341147	0.074797074	-0.073368582	-1.1580302	0.077059244	0.13963277	-1.7214617	0.088576101	0.01016874	-1.1415952	0.10736042	0.057220853	NaN	NaN	NaN	-1.1945734	0.038969439	0.064297292	-1.5674569	0.41021745	-0.094066001	-1.2479497	0.4559641	0.15597852	-1.577936	0.41244239	0.025771724	-1.2564722	0.43771966	0.02872834	-1.4709977	0.78525381	-0.1587436	-1.438049	0.77947483	0.18920929	-1.3838411	0.82456135	-0.12142458	-1.3542895	0.83085298	0.12355487	-1.5402719	0.90689139	0.034212897	-1.38498	1.3075093	-0.17809984	-1.3940884	1.2961646	0.18535572	-1.4632226	1.3475269	0.002133497	-1.394186	0.98681582	-0.25537515	-1.5298798	1.0094429	0.24194627	-1.1875533	0.84876942	-0.23220451	-1.4298233	0.79017374	0.27348713
8	0.028	-1.6138498	0.032384224	-0.060106746	-1.0150143	0.09752748	0.13643391	-1.7338527	0.075326277	-0.073391821	-1.1436627	0.077556315	0.14023113	-1.720886	0.08900826	0.010163877	-1.1282588	0.10806395	0.057567242	NaN	NaN	NaN	-1.1798252	0.038324755	0.065224625	-1.5643388	0.40947736	-0.094107155	-1.2412579	0.45431911	0.15557399	-1.5747948	0.41160984	0.025751488	-1.2505941	0.4356233	0.027975927	-1.4657407	0.78382549	-0.15808757	-1.431685	0.77741898	0.18937481	-1.3785275	0.82280113	-0.12159782	-1.3480774	0.82902928	0.12348314	-1.5357881	0.90535483	0.032723969	-1.3791993	1.3057614	-0.17770321	-1.3887081	1.2943759	0.18583837	-1.4574987	1.3459028	0.0026075587	-1.386879	0.98496304	-0.25503067	-1.5245803	1.0077213	0.24208228	-1.1794938	0.8483945	-0.23107909	-1.4256654	0.78814018	0.27379337
9	0.032	-1.6138276	0.032360975	-0.060063196	-1.0015278	0.10106072	0.13601361	-1.7335831	0.075936865	-0.073414425	-1.1298775	0.078114547	0.14069478	-1.721079	0.089336183	0.01043561	-1.1153439	0.10884406	0.057818179	NaN	NaN	NaN	-1.1656334	0.037759415	0.065976576	-1.5611705	0.40874702	-0.094131722	-1.2343739	0.45280753	0.15523231	-1.5714803	0.41079965	0.025712803	-1.2446653	0.4335764	0.027211449	-1.4605154	0.78235743	-0.15754757	-1.4254447	0.77538628	0.18943715	-1.3732224	0.82096825	-0.12192042	-1.3417981	0.82722298	0.12340592	-1.5315478	0.90390486	0.031190717	-1.3733677	1.3039997	-0.17727582	-1.3833338	1.292616	0.18635303	-1.4517555	1.3442627	0.003014936	-1.3796427	0.98311737	-0.25465127	-1.519248	1.0059837	0.24210817	-1.1714997	0.84797718	-0.22994289	-1.4213554	0.78614125	0.27415612
10	0.036	-1.6137932	0.032341592	-0.060038597	-0.98852596	0.10463643	0.13532435	-1.7333351	0.076586415	-0.073438627	-1.1167124	0.07869075	0.14101318	-1.7225309	0.089482232	0.01114825	-1.1029195	0.10964316	0.057949556	NaN	NaN	NaN	-1.1520037	0.037275049	0.066539117	-1.5579455	0.40803217	-0.094155569	-1.2276134	0.45135159	0.15487391	-1.567905	0.41004133	0.025636592	-1.2386586	0.43158384	0.026433264	-1.4553291	0.78082207	-0.15715338	-1.4194743	0.77334132	0.1893742	-1.3678155	0.81917916	-0.12220596	-1.3354776	0.82543746	0.12331937	-1.5269512	0.90245213	0.03027119	-1.3674801	1.3022323	-0.17681993	-1.3779562	1.2908827	0.18689757	-1.44599	1.3426231	0.0033778963	-1.3724403	0.98129074	-0.2542357	-1.513881	1.0041942	0.24189038	-1.1635575	0.84750185	-0.22879819	-1.4167857	0.78419928	0.27460274
